<svg xmlns="http://www.w3.org/2000/svg" width="48" height="49" viewBox="0 0 48 49" fill="none"><g clip-path="url(#clip0_347_64006)"><path fill-rule="evenodd" clip-rule="evenodd" d="M31.6401 1.43724C31.1427 1.5684 30.577 1.90824 30.3201 2.23027L30.0698 2.54396L29.3549 2.37371C27.6458 1.96684 26.0828 1.79584 24.0463 1.79284C21.9315 1.78965 20.7011 1.9194 18.7963 2.34634C14.8242 3.23677 10.8155 5.41702 7.79633 8.3289C6.53718 9.54343 4.87443 11.6237 4.87443 11.9848C4.87443 12.5671 5.62949 12.8411 6.00159 12.3937C6.09815 12.2777 6.51158 11.7609 6.92043 11.2453C7.84574 10.0782 9.60421 8.36499 10.7891 7.47605C13.7284 5.27096 16.8262 3.95255 20.5831 3.30784C21.5866 3.13562 22.161 3.09924 23.9057 3.09727C26.0724 3.09474 27.2959 3.21474 28.8709 3.58412L29.5704 3.74818L29.6752 4.2623C29.9691 5.70484 31.0654 6.59452 32.4227 6.49215C34.6078 6.32734 35.5791 3.66746 34.0225 2.11093C33.4534 1.54177 32.3871 1.24027 31.6401 1.43724ZM36.5828 6.00062C36.3471 6.16562 36.2964 6.66362 36.4916 6.89555C36.5561 6.97215 36.9457 7.28602 37.3575 7.59315C38.3474 8.33143 40.1565 10.0911 41.0117 11.1476C43.5817 14.3226 45.1782 18.0691 45.7674 22.3078C46.0176 24.1071 45.8942 27.3472 45.5032 29.2453C45.2489 30.4803 45.1998 30.6046 44.966 30.6046C44.4911 30.6046 43.7932 30.8981 43.359 31.2803C41.9678 32.5049 42.2441 34.6966 43.8931 35.5183C44.4656 35.8036 45.4444 35.8517 45.9951 35.6216C47.6729 34.9205 48.1335 32.8165 46.9076 31.453L46.4711 30.9676L46.6728 30.0595C47.0798 28.2269 47.1848 27.1852 47.1848 24.9796C47.1848 22.7227 47.0839 21.7643 46.6355 19.7651C45.4566 14.5084 42.1643 9.49149 37.7938 6.29124C37.1583 5.82587 36.9155 5.76755 36.5828 6.00062ZM21.0486 6.62809C20.8394 6.81015 20.7696 7.02896 20.5394 8.22587C20.3927 8.98862 20.2569 9.62734 20.2376 9.64524C20.2183 9.66324 19.2169 10.0853 18.0122 10.5832L15.8217 11.4885L14.6043 10.6872C13.7308 10.1123 13.3041 9.8859 13.0941 9.8859C12.8381 9.8859 12.5564 10.1308 10.8534 11.8336C9.15055 13.5366 8.90568 13.8183 8.90568 14.0743C8.90568 14.2843 9.13218 14.7111 9.70733 15.5851L10.509 16.8032L9.59915 18.993C9.09862 20.1974 8.6818 21.1932 8.67271 21.2059C8.66362 21.2187 8.02696 21.3566 7.25793 21.5123C6.14887 21.737 5.81418 21.8411 5.63952 22.0157L5.4193 22.236L5.40468 24.9644L5.39005 27.6929L5.6249 27.9284C5.81774 28.1217 6.1094 28.2143 7.25793 28.447C8.02696 28.6027 8.66362 28.7406 8.67262 28.7534C8.68162 28.7661 9.09693 29.7644 9.5954 30.9718L10.5018 33.167L9.70377 34.3797C9.13143 35.2493 8.90568 35.6751 8.90568 35.885C8.90568 36.141 9.15055 36.4227 10.8534 38.1256C12.5564 39.8285 12.8381 40.0734 13.0941 40.0734C13.304 40.0734 13.7295 39.8478 14.5981 39.2762L15.8093 38.4791L18.0059 39.3861C19.2141 39.8851 20.213 40.2999 20.2257 40.3081C20.2385 40.3162 20.3764 40.9521 20.5321 41.7211C20.7643 42.8675 20.8576 43.1617 21.0501 43.3542L21.2849 43.589H23.9994H26.714L26.9487 43.3542C27.1413 43.1617 27.2346 42.8675 27.4668 41.7211C27.6225 40.9521 27.7604 40.3165 27.7731 40.3087C27.7859 40.3008 28.7852 39.8863 29.9939 39.3874L32.1915 38.4803L33.4018 39.2769C34.2696 39.8479 34.6949 40.0734 34.9048 40.0734C35.1607 40.0734 35.4425 39.8285 37.1454 38.1256C38.8483 36.4227 39.0932 36.141 39.0932 35.885C39.0932 35.6751 38.8674 35.2493 38.2951 34.3797L37.4971 33.167L38.4035 30.9718C38.9019 29.7644 39.3172 28.7661 39.3262 28.7534C39.3352 28.7406 39.9719 28.6027 40.7409 28.447C42.7129 28.0475 42.6053 28.1964 42.6216 25.8448C42.6396 23.2207 42.563 22.2202 42.3259 21.9831C42.1907 21.848 41.7459 21.7159 40.7404 21.5122C39.9716 21.3565 39.3352 21.2187 39.3261 21.2059C39.3171 21.1932 38.9002 20.1974 38.3997 18.993L37.4899 16.8032L38.2915 15.5851C38.8667 14.7111 39.0932 14.2843 39.0932 14.0743C39.0932 13.8183 38.8483 13.5366 37.1454 11.8336C35.4425 10.1308 35.1607 9.8859 34.9048 9.8859C34.6948 9.8859 34.2683 10.1121 33.3958 10.6863L32.1796 11.4868L29.9879 10.5811C28.7826 10.083 27.7716 9.63652 27.7414 9.58909C27.7112 9.54165 27.59 8.96677 27.472 8.31155C27.2441 7.04509 27.1071 6.66887 26.8171 6.51371C26.7055 6.45399 25.6178 6.41715 23.964 6.41715C21.3265 6.41715 21.2879 6.41996 21.0486 6.62809ZM22.8744 14.1477C22.7971 14.1663 22.4174 14.2329 22.0307 14.2958C19.9997 14.626 17.8881 15.7387 16.3233 17.3035C12.6392 20.9876 12.0874 26.7853 15.0111 31.0906C15.5254 31.848 16.7495 33.1204 17.5277 33.7066C19.2661 35.0162 21.7901 35.8535 23.9994 35.8535C26.2087 35.8535 28.7328 35.0162 30.4712 33.7066C31.2494 33.1204 32.4735 31.848 32.9878 31.0906C35.9165 26.7779 35.3587 20.9866 31.6582 17.2861C30.1733 15.8013 28.3141 14.7925 26.2026 14.3259C25.6064 14.1942 23.2141 14.0661 22.8744 14.1477ZM2.09155 14.3171C0.332803 14.9986 -0.17954 17.214 1.12077 18.5147L1.5463 18.9405L1.34408 19.8504C0.919866 21.7591 0.805491 22.8632 0.807835 25.0265C0.809616 26.6701 0.851429 27.3556 1.01371 28.4015C1.88812 34.0353 4.72968 39.1308 8.99943 42.7214C10.7005 44.1519 11.1562 44.3475 11.5507 43.8166C11.8539 43.4086 11.7067 43.1627 10.7034 42.4007C10.2061 42.023 9.33965 41.2711 8.77799 40.7296C3.39712 35.5426 1.03818 27.9758 2.51615 20.643L2.76505 19.4082L3.3524 19.2901C4.04971 19.1501 4.20974 19.0714 4.70202 18.6268C5.19983 18.1771 5.45202 17.6543 5.50808 16.9562C5.59124 15.9199 5.13158 15.0294 4.24565 14.5102C3.90383 14.3099 3.67518 14.2539 3.10415 14.2306C2.6894 14.2137 2.2649 14.25 2.09155 14.3171ZM42.2144 37.3801C42.1006 37.4434 41.7017 37.8961 41.3279 38.3859C39.5211 40.7538 36.9421 42.9246 34.2182 44.37C30.7064 46.2334 26.3589 47.1474 22.4926 46.8351C21.124 46.7246 19.6004 46.4923 18.7729 46.2679C18.4522 46.181 18.3744 46.1182 18.3744 45.9462C18.3744 45.0769 17.6302 44.0103 16.7638 43.6376C16.0898 43.3476 15.1173 43.4003 14.5036 43.7599C13.658 44.2556 13.2065 45.0493 13.2065 46.0404C13.2065 47.4036 14.1828 48.4546 15.5656 48.58C16.298 48.6465 16.9333 48.4208 17.5333 47.8814L18.0103 47.4525L18.9189 47.6553C23.8296 48.7519 28.9826 48.2292 33.5424 46.1718C36.7123 44.7416 39.6544 42.5025 41.8421 39.855C42.8216 38.6698 43.1235 38.2112 43.1241 37.9082C43.1247 37.4824 42.5892 37.1716 42.2144 37.3801Z" fill="#84F7F0"></path></g><defs><clipPath id="clip0_347_64006"><rect width="48" height="48" fill="white" transform="translate(0 0.980469)"></rect></clipPath></defs></svg>