<svg xmlns="http://www.w3.org/2000/svg" width="32" height="32" viewBox="0 0 32 32" fill="none"><path d="M31.802 27.1263C27.0933 18.8897 22.3893 10.6297 17.5327 2.48299C16.6587 1.64832 15.2207 1.66499 14.3673 2.51566C9.93733 10.101 5.46467 17.681 1.11933 25.3203C0.726 26.0117 0.31 26.6943 0 27.427V28.3583C0.292 29.205 0.911333 29.9343 1.82933 30.0877L30.04 30.0897C31.3927 29.9083 32.3193 28.4197 31.802 27.1263ZM29.6413 29.159H2.15933C1.26533 29.1117 0.666 28.141 1.08267 27.345L14.7827 3.59566C15.0413 3.21299 15.258 2.90032 15.7513 2.83566C16.2347 2.77166 16.6307 2.89432 16.932 3.28299L30.8147 27.2483C31.3067 28.1417 30.6667 29.1777 29.6413 29.159Z" fill="#FFE4E5"></path><path d="M29.8156 26.7827C25.533 19.0141 20.7963 11.4821 16.4876 3.72607C16.3403 3.46941 16.015 3.43607 15.7476 3.49674C15.6503 3.51874 15.5663 3.57474 15.499 3.64674L1.63365 27.6287C1.50098 28.0121 1.70498 28.5261 2.15898 28.4934H29.7743C30.8276 28.2954 30.125 27.3434 29.8156 26.7827ZM15.4136 13.0154C15.649 12.9761 16.091 12.9754 16.3316 12.9967C17.2503 13.0787 17.185 13.6774 17.1636 14.4327C17.1143 16.1767 16.9863 18.2121 16.8276 19.9514C16.7903 20.3547 16.7523 20.9007 16.259 20.9794C15.3436 21.1254 15.173 20.7581 15.0996 19.9514C14.9103 17.8834 14.9143 15.7701 14.7643 13.6967C14.813 13.3187 15.0383 13.0781 15.4136 13.0154ZM15.9636 24.7067C15.287 24.7067 14.7383 24.1581 14.7383 23.4814C14.7383 22.8047 15.287 22.2561 15.9636 22.2561C16.6403 22.2561 17.1883 22.8047 17.1883 23.4814C17.1883 24.1581 16.6396 24.7067 15.9636 24.7067Z" fill="#FFE4E5"></path></svg>