<svg xmlns="http://www.w3.org/2000/svg" width="32" height="33" viewBox="0 0 32 33" fill="none"><path d="M31.802 28.1073C27.0933 19.8706 22.3893 11.6106 17.5327 3.46395C16.6587 2.62928 15.2207 2.64595 14.3673 3.49661C9.93733 11.0819 5.46467 18.6619 1.11933 26.3013C0.726 26.9926 0.31 27.6753 0 28.4079V29.3393C0.292 30.1859 0.911333 30.9153 1.82933 31.0686L30.04 31.0706C31.3927 30.8893 32.3193 29.4006 31.802 28.1073ZM29.6413 30.1399H2.15933C1.26533 30.0926 0.666 29.1219 1.08267 28.3259L14.7827 4.57661C15.0413 4.19395 15.258 3.88128 15.7513 3.81661C16.2347 3.75261 16.6307 3.87528 16.932 4.26395L30.8147 28.2293C31.3067 29.1226 30.6667 30.1586 29.6413 30.1399Z" fill="#FFE4E5"></path><path d="M29.8156 27.7637C25.533 19.995 20.7963 12.463 16.4876 4.70703C16.3403 4.45036 16.015 4.41703 15.7476 4.4777C15.6503 4.4997 15.5663 4.5557 15.499 4.6277L1.63365 28.6097C1.50098 28.993 1.70498 29.507 2.15898 29.4744H29.7743C30.8277 29.2764 30.125 28.3244 29.8156 27.7637ZM15.4136 13.9964C15.649 13.957 16.091 13.9564 16.3316 13.9777C17.2503 14.0597 17.185 14.6584 17.1636 15.4137C17.1143 17.1577 16.9863 19.193 16.8276 20.9324C16.7903 21.3357 16.7523 21.8817 16.259 21.9604C15.3436 22.1064 15.173 21.739 15.0996 20.9324C14.9103 18.8644 14.9143 16.751 14.7643 14.6777C14.813 14.2997 15.0383 14.059 15.4136 13.9964ZM15.9636 25.6877C15.287 25.6877 14.7383 25.139 14.7383 24.4624C14.7383 23.7857 15.287 23.237 15.9636 23.237C16.6403 23.237 17.1883 23.7857 17.1883 24.4624C17.1883 25.139 16.6396 25.6877 15.9636 25.6877Z" fill="#FFE4E5"></path></svg>