<svg xmlns="http://www.w3.org/2000/svg" width="48" height="49" viewBox="0 0 48 49" fill="none"><path fill-rule="evenodd" clip-rule="evenodd" d="M2.02764 12.7024C1.87914 12.7469 1.65368 12.8804 1.52655 12.999C1.00202 13.489 1.03211 12.6422 1.03211 26.9023C1.03211 41.5093 0.981394 40.3739 1.65752 40.8897L2.00186 41.1523L21.2279 41.178C42.6513 41.2066 40.9826 41.2571 41.5103 40.5655L41.7665 40.2297L41.7938 37.3278L41.8211 34.4259L41.5594 34.4885C41.4155 34.5229 40.7598 34.5759 40.1024 34.6063L38.9071 34.6616V35.8211V36.9805H21.3755H3.84386L3.86768 26.2227L3.89149 15.4648L7.3368 15.4403L10.7821 15.4156V14.0106V12.6055L6.53993 12.6135C4.20668 12.6179 2.17624 12.658 2.02764 12.7024ZM32.0634 14.0106V15.4156L35.5087 15.4403L38.954 15.4648L38.98 16.6367L39.0059 17.8086H39.8237C40.2735 17.8086 40.908 17.8426 41.2337 17.8843L41.8259 17.9599L41.7962 15.7749C41.7671 13.6414 41.7611 13.5824 41.5414 13.2742C41.4176 13.1007 41.1433 12.8801 40.932 12.7841C40.5757 12.6222 40.2399 12.6094 36.3056 12.6075L32.0634 12.6055V14.0106ZM38.8581 19.1668C37.1413 19.4192 35.4536 20.3683 34.3549 21.6992C33.838 22.3254 33.1524 23.6832 32.9348 24.5117C32.714 25.3519 32.7185 27.1566 32.9432 27.975C33.8256 31.1877 36.5939 33.3181 39.8915 33.322C43.0087 33.3255 45.7367 31.2749 46.6856 28.2148C46.9481 27.3688 47.0307 26.0456 46.8801 25.1018C46.4732 22.552 44.7235 20.4283 42.3009 19.5443C41.1742 19.1331 39.9791 19.002 38.8581 19.1668ZM38.9307 21.4277C38.2038 21.7875 37.7821 22.4724 37.7821 23.293C37.7821 24.4845 38.6637 25.3742 39.8446 25.3742C41.7431 25.3742 42.6594 23.0809 41.2829 21.7745C40.6897 21.2115 39.671 21.0613 38.9307 21.4277ZM38.7522 26.1448C37.2676 26.5049 35.8476 27.7712 35.3758 29.1556L35.2218 29.6079L35.9246 30.2817C37.7706 32.0516 40.2958 32.3998 42.5799 31.1997C43.3107 30.8156 44.4384 29.7818 44.4384 29.4958C44.4384 29.3981 44.2849 29.0113 44.0973 28.6363C43.1231 26.6893 40.8589 25.6338 38.7522 26.1448ZM11.4041 30.7061C11.1047 30.9416 11.0663 31.4317 11.3286 31.6691C11.5739 31.8911 13.6953 31.8976 13.9159 31.677C14.2682 31.3247 14.169 30.7704 13.7234 30.601C13.5943 30.5518 13.0752 30.5117 12.5699 30.5117C11.7824 30.5117 11.6158 30.5395 11.4041 30.7061ZM15.873 30.6239C15.6255 30.7435 15.4685 31.1432 15.5658 31.4061C15.7078 31.7902 15.8636 31.8314 17.0666 31.8038C18.1906 31.7779 18.2195 31.7719 18.4032 31.5255C18.5659 31.3074 18.5758 31.2368 18.4771 30.9986C18.4145 30.8473 18.2586 30.6759 18.1307 30.6177C17.8399 30.4851 16.1505 30.4899 15.873 30.6239ZM20.2583 30.6303C19.9118 30.8071 19.8102 31.2228 20.0388 31.5293C20.2191 31.7711 20.2529 31.778 21.3751 31.8038C22.3482 31.8261 22.5534 31.8058 22.7011 31.6721C22.9667 31.4317 22.9301 30.9431 22.6288 30.7061C22.4156 30.5382 22.2522 30.5119 21.4335 30.5131C20.8687 30.514 20.3935 30.5613 20.2583 30.6303ZM24.6866 30.6061C24.273 30.7728 24.157 31.3241 24.4696 31.6367C24.6371 31.8042 24.7821 31.8242 25.8236 31.8242C26.9229 31.8242 26.9986 31.8122 27.1361 31.6158C27.3601 31.2962 27.3193 30.9297 27.0351 30.7061C26.8208 30.5374 26.6626 30.5125 25.8398 30.5176C25.3182 30.5209 24.7993 30.5607 24.6866 30.6061ZM29.0929 30.602C28.6783 30.7773 28.5636 31.3244 28.8759 31.6367C29.0426 31.8034 29.1883 31.8242 30.1884 31.8242C31.1884 31.8242 31.3342 31.8034 31.5009 31.6367C31.7371 31.4005 31.7405 31.0656 31.5093 30.7799C31.3435 30.5748 31.2558 30.557 30.314 30.537C29.7551 30.5251 29.2056 30.5544 29.0929 30.602ZM18.5634 43.6744V44.9308L16.5243 44.9676C14.346 45.0069 14.1103 45.0517 13.4566 45.5503C13.0141 45.8878 12.6605 46.619 12.5936 47.3347L12.5363 47.9492H21.3623H30.1884L30.1863 47.3633C30.1838 46.6528 29.9754 46.1608 29.473 45.6804C28.8242 45.0598 28.6095 45.0119 26.2743 44.9681L24.1884 44.9289V43.6734V42.418H21.3759H18.5634V43.6744Z" fill="#84F7F0"></path><path fill-rule="evenodd" clip-rule="evenodd" d="M20.1252 2.29071C18.0894 2.71771 16.3777 4.13482 15.5678 6.064C15.199 6.9424 15.0781 7.85574 15.0781 9.76516V11.4449L14.1866 11.4829C13.5961 11.5079 13.211 11.5652 13.0462 11.6524C12.7176 11.8263 12.2902 12.2799 12.1804 12.5713C12.1212 12.7287 12.0929 14.8433 12.0938 19.0448L12.0952 25.2846L12.2811 25.6131C12.3834 25.7939 12.6285 26.0553 12.8259 26.1941L13.1849 26.4465L21.2017 26.4695C30.1622 26.4952 29.6438 26.5275 30.2041 25.9069C30.3642 25.7296 30.5354 25.4349 30.5846 25.252C30.6458 25.0245 30.6669 22.9948 30.6513 18.8295L30.6285 12.7396L30.3763 12.3311C30.215 12.0699 29.9908 11.848 29.7543 11.7153L29.3845 11.5078L23.5997 11.4849L17.815 11.462L17.8156 9.94949C17.816 9.11765 17.855 8.1975 17.9026 7.9047C18.1428 6.42294 19.2963 5.25307 20.7915 4.97479C22.2853 4.69685 23.8878 5.58164 24.543 7.04614C25.0689 8.22198 25.2626 8.39552 26.0488 8.39552C26.6575 8.39552 26.9895 8.21244 27.2625 7.72652C27.5439 7.22549 27.4663 6.74661 26.9273 5.65675C26.5532 4.90051 26.3966 4.68614 25.7426 4.03506C24.9187 3.21492 24.1666 2.75921 23.0814 2.42242C22.3337 2.19046 20.9067 2.12688 20.1252 2.29071ZM20.6904 15.1697C20.1157 15.3464 19.6046 15.882 19.4268 16.4936C19.1881 17.3153 19.4108 18.0749 20.0514 18.6234L20.386 18.9101V20.5024C20.386 22.2803 20.4475 22.5692 20.873 22.7894C21.1939 22.9554 21.6243 22.9556 21.8608 22.7898C22.2505 22.5166 22.2935 22.2933 22.2937 20.5374L22.294 18.8942L22.5444 18.7282C22.682 18.6369 22.8881 18.4282 23.0022 18.2645C23.7883 17.1364 23.2489 15.5497 21.9479 15.163C21.4265 15.0081 21.2123 15.0092 20.6904 15.1697Z" fill="#84F7F0"></path></svg>