<svg xmlns="http://www.w3.org/2000/svg" width="24" height="25" viewBox="0 0 24 25" fill="none"><g clip-path="url(#clip0_347_64045)"><path fill-rule="evenodd" clip-rule="evenodd" d="M10.8521 1.21523C8.0705 1.52316 5.59663 2.70272 3.6591 4.64489C1.82563 6.48277 0.701236 8.72142 0.296611 11.3394C0.179893 12.0945 0.179752 13.8641 0.29633 14.6207C0.903174 18.5594 3.29253 21.8395 6.81847 23.5745C8.618 24.4599 10.4419 24.8512 12.4224 24.7766C14.2028 24.7096 15.7323 24.3165 17.2974 23.5238C20.7586 21.7705 23.1078 18.5059 23.7041 14.6207C23.8198 13.8664 23.8199 12.0946 23.7042 11.3394C23.109 7.45467 20.7599 4.19034 17.2974 2.43638C16.1441 1.85222 14.991 1.48397 13.688 1.28372C13.1113 1.19508 11.406 1.15392 10.8521 1.21523ZM17.2492 7.15041C17.1855 7.1925 15.4098 8.94769 13.3032 11.0507C11.1966 13.1538 9.45767 14.8591 9.43883 14.8403C9.42003 14.8215 8.93928 14.0003 8.37055 13.0155C7.19 10.9714 7.20627 10.9909 6.71361 11.0213L6.41886 11.0394L5.71269 11.7402C5.32428 12.1256 4.97703 12.5089 4.94099 12.5918C4.84677 12.8088 4.86027 13.0944 4.97549 13.3218C5.15338 13.6729 7.55333 17.8219 7.76038 18.1363C8.09957 18.6513 8.44733 18.8476 9.07082 18.876C9.42177 18.892 9.53999 18.8778 9.77394 18.7917C10.0455 18.6917 10.2078 18.5359 14.4999 14.2521C17.0096 11.7473 18.984 9.7403 19.0351 9.64209C19.0881 9.54 19.1255 9.37406 19.1255 9.24028C19.1255 9.0368 19.0721 8.91881 18.6258 8.136C18.2559 7.48734 18.0869 7.23548 17.9757 7.16672C17.7881 7.05075 17.4128 7.04231 17.2492 7.15041Z" fill="#84F7F0"></path></g><defs><clipPath id="clip0_347_64045"><rect width="24" height="24" fill="white" transform="translate(0 0.980957)"></rect></clipPath></defs></svg>